<mxfile host="app.diagrams.net" modified="2024-05-27T15:52:29.394Z" agent="Mozilla/5.0 (Windows NT 10.0; Win64; x64) AppleWebKit/537.36 (KHTML, like Gecko) Chrome/125.0.0.0 Safari/537.36" version="24.4.9" etag="XqP4QcZtF6fdC7C3w4QQ" type="github">
  <diagram name="Page-1" id="A8f7JKrDxFVMKA6CNLwt">
    <mxGraphModel>
      <root>
        <mxCell id="0" />
        <mxCell id="1" parent="0" />
      </root>
    </mxGraphModel>
  </diagram>
</mxfile>
